<?xml version="1.0" encoding="iso-8859-1"?>
<svg version="1.1" id="Capa_1" xmlns="http://www.w3.org/2000/svg" xmlns:xlink="http://www.w3.org/1999/xlink" x="0px" y="0px"
	 viewBox="0 0 512.002 512.002" style="enable-background:new 0 0 512.002 512.002;" xml:space="preserve">
<g>
	<g>
		<path  style="fill:#555555"  d="M469.335,42.669h-64v21.333h64c11.782,0,21.333,9.551,21.333,21.333v298.667c0,11.782-9.551,21.333-21.333,21.333H42.668
			c-11.782,0-21.333-9.551-21.333-21.333V85.336c0-11.782,9.551-21.333,21.333-21.333h64V42.669h-64
			c-23.564,0-42.667,19.102-42.667,42.667v298.667c0,23.564,19.103,42.667,42.667,42.667h426.667
			c23.564,0,42.667-19.102,42.667-42.667V85.336C512.001,61.771,492.899,42.669,469.335,42.669z"/>
	</g>
</g>
<g>
	<g>
		<path style="fill:#555555"  d="M405.335,448.002H106.668c-17.673,0-32,14.327-32,32s14.327,32,32,32h298.667c17.673,0,32-14.327,32-32
			S423.008,448.002,405.335,448.002z M405.335,490.669H106.668c-5.891,0-10.667-4.776-10.667-10.667
			c0-5.891,4.776-10.667,10.667-10.667h298.667c5.891,0,10.667,4.776,10.667,10.667
			C416.001,485.893,411.226,490.669,405.335,490.669z"/>
	</g>
</g>
<g>
	<g>
		<path style="fill:#555555"  d="M320.001,405.336h-128c-5.891,0-10.667,4.776-10.667,10.667v42.667c0,5.891,4.776,10.667,10.667,10.667h128
			c5.891,0,10.667-4.776,10.667-10.667v-42.667C330.668,410.111,325.892,405.336,320.001,405.336z M309.334,448.002H202.668v-21.333
			h106.667V448.002z"/>
	</g>
</g>
<g>
	<g>
		<path style="fill:#555555"  d="M352.001,341.336c-2.829,0.001-5.541,1.125-7.541,3.125l-18.208,18.208H185.75l-18.208-18.208
			c-2-2.001-4.713-3.125-7.541-3.125h-160v21.333h155.584l18.208,18.208c2,2.001,4.713,3.125,7.541,3.125h149.333
			c2.829-0.001,5.541-1.125,7.541-3.125l18.208-18.208h155.584v-21.333H352.001z"/>
	</g>
</g>
<g>
	<g>
		<path style="fill:#555555"  d="M408.705,85.88c-42.397-12.665-80.872-35.916-111.797-67.563c-1.378-1.543-2.842-3.008-4.386-4.386
			c-22.592-20.17-57.258-18.206-77.428,4.386c-30.926,31.647-69.4,54.898-111.797,67.563c-4.358,1.451-7.297,5.53-7.296,10.123
			c0,2.005,1.792,200.533,157.077,244.917c0.95,0.277,1.934,0.417,2.923,0.416c0.989,0.001,1.973-0.139,2.923-0.416
			C414.209,296.536,416.001,98.008,416.001,96.002C416.002,91.409,413.063,87.331,408.705,85.88z M256.001,319.554
			c-120.747-36.725-136.363-181.333-138.379-216.085c42.947-14.034,81.82-38.335,113.248-70.795
			c0.923-1.046,1.911-2.034,2.957-2.957c13.879-12.246,35.058-10.923,47.305,2.957c31.424,32.472,70.298,56.784,113.248,70.827
			C392.364,138.221,376.748,282.829,256.001,319.554z"/>
	</g>
</g>
<g>
	<g>
		<path style="fill:#555555"  d="M364.652,114.776c-37.554-15.225-71.41-38.321-99.285-67.733L249.601,61.41c28.003,29.706,61.753,53.407,99.2,69.664
			c-7.061,45.301-28.352,116.256-92.8,143.189c-68.267-28.544-88.139-106.56-93.867-151.061l-21.152,2.731
			c6.443,50.069,29.461,138.603,111.221,169.781c1.212,0.465,2.499,0.704,3.797,0.704c1.305,0.003,2.6-0.236,3.819-0.704
			c81.76-31.104,104.832-119.744,111.232-169.771C371.658,121.208,369.044,116.647,364.652,114.776z"/>
	</g>
</g>
<g>
	<g>
		<rect x="42.668" y="298.669" width="21.333" height="21.333"/>
	</g>
</g>
<g>
	<g>
		<rect x="85.334" y="298.669" width="21.333" height="21.333"/>
	</g>
</g>
<g>
	<g>
		<rect x="42.668" y="256.002" width="21.333" height="21.333"/>
	</g>
</g>
<g>
	<g>
		<rect x="448.001" y="298.669" width="21.333" height="21.333"/>
	</g>
</g>
<g>
	<g>
		<rect x="405.335" y="298.669" width="21.333" height="21.333"/>
	</g>
</g>
<g>
	<g>
		<rect x="448.001" y="256.002" width="21.333" height="21.333"/>
	</g>
</g>
<g>
</g>
<g>
</g>
<g>
</g>
<g>
</g>
<g>
</g>
<g>
</g>
<g>
</g>
<g>
</g>
<g>
</g>
<g>
</g>
<g>
</g>
<g>
</g>
<g>
</g>
<g>
</g>
<g>
</g>
</svg>
